<svg width="20" height="21" viewBox="0 0 20 21" fill="none" xmlns="http://www.w3.org/2000/svg">
<g filter="url(#filter0_i_10229_97334)">
<ellipse cx="10" cy="11.1743" rx="10" ry="9.82569" fill="#B18A2A"/>
</g>
<path d="M19.902 11.1743C19.902 16.5451 15.4703 20.902 10 20.902C4.52967 20.902 0.0980392 16.5451 0.0980392 11.1743C0.0980392 5.80351 4.52967 1.44667 10 1.44667C15.4703 1.44667 19.902 5.80351 19.902 11.1743Z" stroke="black" stroke-opacity="0.25" stroke-width="0.196078"/>
<g filter="url(#filter1_i_10229_97334)">
<ellipse cx="10" cy="9.82569" rx="10" ry="9.82569" fill="#F9D679"/>
</g>
<g filter="url(#filter2_ii_10229_97334)">
<ellipse cx="9.90198" cy="9.92176" rx="7.15686" ry="7.03211" fill="#B1892C"/>
</g>
<g filter="url(#filter3_d_10229_97334)">
<path d="M9.81359 4.80125C9.8729 4.62189 10.1266 4.62189 10.1859 4.80125L11.2319 7.96439C11.2585 8.04469 11.3335 8.09891 11.4181 8.09891H14.7956C14.9864 8.09891 15.0648 8.34373 14.9095 8.45458L12.183 10.401C12.1131 10.4509 12.0838 10.5405 12.1108 10.6221L13.1536 13.7756C13.2131 13.9557 13.0078 14.107 12.8535 13.9968L10.1137 12.0409C10.0455 11.9922 9.95398 11.9922 9.88583 12.0409L7.14599 13.9968C6.99165 14.107 6.78637 13.9557 6.8459 13.7756L7.88872 10.6221C7.9157 10.5405 7.88642 10.4509 7.81649 10.401L5.09 8.45458C4.93472 8.34373 5.01314 8.09891 5.20392 8.09891H8.58142C8.66599 8.09891 8.74103 8.04469 8.76759 7.96439L9.81359 4.80125Z" fill="#F8D578"/>
<path d="M9.8322 4.8074C9.88558 4.64598 10.1139 4.64598 10.1673 4.8074L11.2133 7.97055C11.2425 8.05887 11.3251 8.11852 11.4181 8.11852H14.7956C14.9673 8.11852 15.0379 8.33886 14.8981 8.43862L12.1716 10.385C12.0947 10.4399 12.0625 10.5385 12.0922 10.6283L13.135 13.7818C13.1886 13.9438 13.0038 14.08 12.8649 13.9808L10.1251 12.0249C10.0501 11.9714 9.94941 11.9714 9.87443 12.0249L7.1346 13.9808C6.99569 14.08 6.81094 13.9438 6.86452 13.7818L7.90734 10.6283C7.93702 10.5385 7.90481 10.4399 7.82788 10.385L5.10139 8.43862C4.96164 8.33886 5.03222 8.11852 5.20392 8.11852H8.58142C8.67445 8.11852 8.75699 8.05887 8.7862 7.97055L9.8322 4.8074Z" stroke="black" stroke-opacity="0.2" stroke-width="0.0392157"/>
</g>
<defs>
<filter id="filter0_i_10229_97334" x="0" y="1.34863" width="20" height="19.6514" filterUnits="userSpaceOnUse" color-interpolation-filters="sRGB">
<feFlood flood-opacity="0" result="BackgroundImageFix"/>
<feBlend mode="normal" in="SourceGraphic" in2="BackgroundImageFix" result="shape"/>
<feColorMatrix in="SourceAlpha" type="matrix" values="0 0 0 0 0 0 0 0 0 0 0 0 0 0 0 0 0 0 127 0" result="hardAlpha"/>
<feOffset dx="4.11765" dy="6.86275"/>
<feComposite in2="hardAlpha" operator="arithmetic" k2="-1" k3="1"/>
<feColorMatrix type="matrix" values="0 0 0 0 0 0 0 0 0 0 0 0 0 0 0 0 0 0 0.19 0"/>
<feBlend mode="normal" in2="shape" result="effect1_innerShadow_10229_97334"/>
</filter>
<filter id="filter1_i_10229_97334" x="-0.392157" y="-0.784314" width="20.3922" height="20.4357" filterUnits="userSpaceOnUse" color-interpolation-filters="sRGB">
<feFlood flood-opacity="0" result="BackgroundImageFix"/>
<feBlend mode="normal" in="SourceGraphic" in2="BackgroundImageFix" result="shape"/>
<feColorMatrix in="SourceAlpha" type="matrix" values="0 0 0 0 0 0 0 0 0 0 0 0 0 0 0 0 0 0 127 0" result="hardAlpha"/>
<feOffset dx="-0.392157" dy="-5.68627"/>
<feGaussianBlur stdDeviation="0.392157"/>
<feComposite in2="hardAlpha" operator="arithmetic" k2="-1" k3="1"/>
<feColorMatrix type="matrix" values="0 0 0 0 0.964706 0 0 0 0 0.74902 0 0 0 0 0.258824 0 0 0 1 0"/>
<feBlend mode="normal" in2="shape" result="effect1_innerShadow_10229_97334"/>
</filter>
<filter id="filter2_ii_10229_97334" x="2.74512" y="2.69357" width="14.3135" height="14.6527" filterUnits="userSpaceOnUse" color-interpolation-filters="sRGB">
<feFlood flood-opacity="0" result="BackgroundImageFix"/>
<feBlend mode="normal" in="SourceGraphic" in2="BackgroundImageFix" result="shape"/>
<feColorMatrix in="SourceAlpha" type="matrix" values="0 0 0 0 0 0 0 0 0 0 0 0 0 0 0 0 0 0 127 0" result="hardAlpha"/>
<feOffset dy="0.588235"/>
<feGaussianBlur stdDeviation="0.196078"/>
<feComposite in2="hardAlpha" operator="arithmetic" k2="-1" k3="1"/>
<feColorMatrix type="matrix" values="0 0 0 0 0 0 0 0 0 0 0 0 0 0 0 0 0 0 0.18 0"/>
<feBlend mode="normal" in2="shape" result="effect1_innerShadow_10229_97334"/>
<feColorMatrix in="SourceAlpha" type="matrix" values="0 0 0 0 0 0 0 0 0 0 0 0 0 0 0 0 0 0 127 0" result="hardAlpha"/>
<feOffset dy="-0.196078"/>
<feGaussianBlur stdDeviation="0.392157"/>
<feComposite in2="hardAlpha" operator="arithmetic" k2="-1" k3="1"/>
<feColorMatrix type="matrix" values="0 0 0 0 1 0 0 0 0 1 0 0 0 0 1 0 0 0 0.25 0"/>
<feBlend mode="normal" in2="effect1_innerShadow_10229_97334" result="effect2_innerShadow_10229_97334"/>
</filter>
<filter id="filter3_d_10229_97334" x="4.2235" y="4.47091" width="11.553" height="10.9358" filterUnits="userSpaceOnUse" color-interpolation-filters="sRGB">
<feFlood flood-opacity="0" result="BackgroundImageFix"/>
<feColorMatrix in="SourceAlpha" type="matrix" values="0 0 0 0 0 0 0 0 0 0 0 0 0 0 0 0 0 0 127 0" result="hardAlpha"/>
<feOffset dy="0.588235"/>
<feGaussianBlur stdDeviation="0.392157"/>
<feComposite in2="hardAlpha" operator="out"/>
<feColorMatrix type="matrix" values="0 0 0 0 0.407843 0 0 0 0 0.431373 0 0 0 0 0.466667 0 0 0 1 0"/>
<feBlend mode="normal" in2="BackgroundImageFix" result="effect1_dropShadow_10229_97334"/>
<feBlend mode="normal" in="SourceGraphic" in2="effect1_dropShadow_10229_97334" result="shape"/>
</filter>
</defs>
</svg>
