<svg width="30" height="26" viewBox="0 0 30 26" fill="none" xmlns="http://www.w3.org/2000/svg">
<g filter="url(#filter0_d_10229_98338)">
<path d="M18.8683 2L26.0976 3.91342L28 7.74026L15.1902 23.0476L2 7.48514L4.1561 3.91342L10.7512 2H18.8683Z" fill="#F1F2F4"/>
</g>
<path d="M20.9425 9.42865L27.8759 7.69531L15.3711 22.5525L20.9425 9.42865Z" fill="#F1F3F4"/>
<path d="M9.18066 9.42871H20.5711L14.9997 22.5525L9.18066 9.42871Z" fill="#EBECF0"/>
<path d="M9.05714 9.42822L2 7.44727L14.8762 22.552L9.05714 9.42822Z" fill="#BABCBD"/>
<path d="M25.895 3.98145L18.8379 5.71478L20.8188 9.42906L27.7522 7.69573L25.895 3.98145Z" fill="#F3F5F7"/>
<path d="M18.5902 5.71484H10.6664L9.18066 9.42913H20.5711L18.5902 5.71484Z" fill="#EEF0F1"/>
<path d="M10.5429 5.71478L4.10476 3.98145L2 7.44811L9.05714 9.42906L10.5429 5.71478Z" fill="#A4A6A7"/>
<path d="M10.6666 5.59048L4.22852 3.85714L10.6666 2H18.5904L25.6476 3.85714L18.5904 5.59048H10.6666Z" fill="#EAEDEE"/>
<defs>
<filter id="filter0_d_10229_98338" x="0.0235294" y="0.0235294" width="29.9529" height="25.0008" filterUnits="userSpaceOnUse" color-interpolation-filters="sRGB">
<feFlood flood-opacity="0" result="BackgroundImageFix"/>
<feColorMatrix in="SourceAlpha" type="matrix" values="0 0 0 0 0 0 0 0 0 0 0 0 0 0 0 0 0 0 127 0" result="hardAlpha"/>
<feOffset/>
<feGaussianBlur stdDeviation="0.988235"/>
<feComposite in2="hardAlpha" operator="out"/>
<feColorMatrix type="matrix" values="0 0 0 0 0.72549 0 0 0 0 0.94902 0 0 0 0 1 0 0 0 1 0"/>
<feBlend mode="normal" in2="BackgroundImageFix" result="effect1_dropShadow_10229_98338"/>
<feBlend mode="normal" in="SourceGraphic" in2="effect1_dropShadow_10229_98338" result="shape"/>
</filter>
</defs>
</svg>
