<svg width="22" height="25" viewBox="0 0 22 25" fill="none" xmlns="http://www.w3.org/2000/svg">
<path d="M10.3909 1.46774C10.7501 1.19189 11.2499 1.19189 11.6091 1.46774L15.6953 4.60573C15.7648 4.65911 15.841 4.70313 15.922 4.73664L20.6827 6.7064C21.1012 6.87955 21.3511 7.31234 21.2918 7.76134L20.6173 12.8691C20.6058 12.956 20.6058 13.044 20.6173 13.1309L21.2918 18.2387C21.3511 18.6877 21.1012 19.1205 20.6827 19.2936L15.922 21.2634C15.841 21.2969 15.7648 21.3409 15.6953 21.3943L11.6091 24.5323C11.2499 24.8081 10.7501 24.8081 10.3909 24.5323L6.30473 21.3943C6.23521 21.3409 6.15898 21.2969 6.07798 21.2634L1.3173 19.2936C0.898814 19.1205 0.64894 18.6877 0.708231 18.2387L1.38271 13.1309C1.39419 13.044 1.39419 12.956 1.38271 12.8691L0.708231 7.76134C0.64894 7.31234 0.898813 6.87955 1.3173 6.7064L6.07798 4.73664C6.15898 4.70313 6.23521 4.65912 6.30473 4.60573L10.3909 1.46774Z" fill="#003C1C"/>
<g filter="url(#filter0_i_7671_61201)">
<path d="M10.3909 0.467736C10.7501 0.191889 11.2499 0.19189 11.6091 0.467736L15.6953 3.60573C15.7648 3.65911 15.841 3.70313 15.922 3.73664L20.6827 5.7064C21.1012 5.87955 21.3511 6.31234 21.2918 6.76134L20.6173 11.8691C20.6058 11.956 20.6058 12.044 20.6173 12.1309L21.2918 17.2387C21.3511 17.6877 21.1012 18.1205 20.6827 18.2936L15.922 20.2634C15.841 20.2969 15.7648 20.3409 15.6953 20.3943L11.6091 23.5323C11.2499 23.8081 10.7501 23.8081 10.3909 23.5323L6.30473 20.3943C6.23521 20.3409 6.15898 20.2969 6.07798 20.2634L1.3173 18.2936C0.898814 18.1205 0.64894 17.6877 0.708231 17.2387L1.38271 12.1309C1.39419 12.044 1.39419 11.956 1.38271 11.8691L0.708231 6.76134C0.64894 6.31234 0.898813 5.87955 1.3173 5.7064L6.07798 3.73664C6.15898 3.70313 6.23521 3.65912 6.30473 3.60573L10.3909 0.467736Z" fill="#00DE69"/>
</g>
<path d="M10.6955 0.864293L10.3909 0.467736L10.6955 0.864293C10.8751 0.72637 11.1249 0.72637 11.3045 0.864294L11.6083 0.468732L11.3045 0.864294L15.3907 4.00229L15.6921 3.60988L15.3907 4.00229C15.495 4.08237 15.6094 4.14839 15.7309 4.19866L20.4915 6.16841C20.7008 6.25499 20.8257 6.47138 20.7961 6.69588L20.1216 11.8036C20.1044 11.934 20.1044 12.066 20.1216 12.1964L20.7961 17.3041C20.8257 17.5286 20.7008 17.745 20.4915 17.8316L15.7309 19.8013L15.922 20.2634L15.7309 19.8013C15.6094 19.8516 15.495 19.9176 15.3907 19.9977L11.3045 23.1357C11.1249 23.2736 10.8751 23.2736 10.6955 23.1357L6.60927 19.9977C6.50499 19.9176 6.39063 19.8516 6.26914 19.8013L6.07798 20.2634L6.26914 19.8013L1.50846 17.8316C1.29922 17.745 1.17428 17.5286 1.20393 17.3041L1.87841 12.1964C1.89562 12.066 1.89562 11.934 1.87841 11.8036L1.20393 6.69588C1.17428 6.47138 1.29922 6.25499 1.50846 6.16841L6.26914 4.19866C6.39063 4.14839 6.50499 4.08237 6.60927 4.00229L10.6955 0.864293Z" stroke="#00A14C"/>
<g filter="url(#filter1_ii_7671_61201)">
<circle cx="11.155" cy="12.155" r="7.155" fill="#07A451"/>
</g>
<path d="M8.95789 8.2L13.2179 14.68V8.2H14.2379V16H13.0379L8.77789 9.52V16H7.75789V8.2H8.95789Z" fill="white"/>
<defs>
<filter id="filter0_i_7671_61201" x="0.699219" y="-0.523572" width="20.6016" height="24.2628" filterUnits="userSpaceOnUse" color-interpolation-filters="sRGB">
<feFlood flood-opacity="0" result="BackgroundImageFix"/>
<feBlend mode="normal" in="SourceGraphic" in2="BackgroundImageFix" result="shape"/>
<feColorMatrix in="SourceAlpha" type="matrix" values="0 0 0 0 0 0 0 0 0 0 0 0 0 0 0 0 0 0 127 0" result="hardAlpha"/>
<feOffset dy="-5"/>
<feGaussianBlur stdDeviation="0.392157"/>
<feComposite in2="hardAlpha" operator="arithmetic" k2="-1" k3="1"/>
<feColorMatrix type="matrix" values="0 0 0 0 0.102531 0 0 0 0 0.6375 0 0 0 0 0.355557 0 0 0 0.24 0"/>
<feBlend mode="normal" in2="shape" result="effect1_innerShadow_7671_61201"/>
</filter>
<filter id="filter1_ii_7671_61201" x="4" y="4" width="14.3096" height="15.3096" filterUnits="userSpaceOnUse" color-interpolation-filters="sRGB">
<feFlood flood-opacity="0" result="BackgroundImageFix"/>
<feBlend mode="normal" in="SourceGraphic" in2="BackgroundImageFix" result="shape"/>
<feColorMatrix in="SourceAlpha" type="matrix" values="0 0 0 0 0 0 0 0 0 0 0 0 0 0 0 0 0 0 127 0" result="hardAlpha"/>
<feOffset dy="-1"/>
<feGaussianBlur stdDeviation="1"/>
<feComposite in2="hardAlpha" operator="arithmetic" k2="-1" k3="1"/>
<feColorMatrix type="matrix" values="0 0 0 0 0 0 0 0 0 0 0 0 0 0 0 0 0 0 0.18 0"/>
<feBlend mode="normal" in2="shape" result="effect1_innerShadow_7671_61201"/>
<feColorMatrix in="SourceAlpha" type="matrix" values="0 0 0 0 0 0 0 0 0 0 0 0 0 0 0 0 0 0 127 0" result="hardAlpha"/>
<feOffset dy="-1"/>
<feGaussianBlur stdDeviation="2"/>
<feComposite in2="hardAlpha" operator="arithmetic" k2="-1" k3="1"/>
<feColorMatrix type="matrix" values="0 0 0 0 1 0 0 0 0 1 0 0 0 0 1 0 0 0 0.25 0"/>
<feBlend mode="normal" in2="effect1_innerShadow_7671_61201" result="effect2_innerShadow_7671_61201"/>
</filter>
</defs>
</svg>
