<svg width="24" height="24" viewBox="0 0 24 24" fill="none" xmlns="http://www.w3.org/2000/svg">
<path fill-rule="evenodd" clip-rule="evenodd" d="M6.42879 2.41309C6.70115 2.10101 6.66896 1.62723 6.35688 1.35487C6.04481 1.08251 5.57103 1.1147 5.29866 1.42678L4.00686 2.90695C3.27409 3.74655 2.85986 4.81707 2.83663 5.93122L2.77995 8.64888C2.77131 9.063 3.10002 9.40572 3.51415 9.41435C3.92827 9.42299 4.27098 9.09428 4.27962 8.68016L4.3363 5.9625C4.3522 5.20018 4.63562 4.46773 5.13698 3.89326L6.42879 2.41309ZM6.23695 7.70075C6.37585 5.48001 8.21745 3.75 10.4425 3.75H10.9999V3C10.9999 2.44772 11.4476 2 11.9999 2C12.5522 2 12.9999 2.44772 12.9999 3V3.75H13.5573C15.7824 3.75 17.624 5.48001 17.7629 7.70074L17.9839 11.2342C18.0681 12.5814 18.5204 13.8796 19.2915 14.9875C19.9882 15.9886 19.3679 17.3712 18.157 17.5165L14.7499 17.9253V19C14.7499 20.5187 13.5187 21.75 11.9999 21.75C10.4811 21.75 9.24994 20.5187 9.24994 19V17.9253L5.84281 17.5165C4.63188 17.3712 4.01166 15.9886 4.70834 14.9875C5.4794 13.8796 5.93169 12.5814 6.01595 11.2342L6.23695 7.70075ZM10.4425 5.25C9.00952 5.25 7.82348 6.36417 7.73403 7.79438L7.51303 11.3278C7.41163 12.9489 6.86738 14.5112 5.93953 15.8444C5.88917 15.9167 5.934 16.0167 6.02153 16.0272L9.75919 16.4757C11.2476 16.6543 12.7521 16.6543 14.2406 16.4757L17.9783 16.0272C18.0658 16.0167 18.1107 15.9167 18.0603 15.8444C17.1324 14.5112 16.5882 12.9489 16.4868 11.3278L16.2658 7.79438C16.1763 6.36417 14.9903 5.25 13.5573 5.25H10.4425ZM11.9999 20.25C11.3095 20.25 10.7499 19.6903 10.7499 19V18.25H13.2499V19C13.2499 19.6903 12.6903 20.25 11.9999 20.25ZM17.5712 2.41309C17.2988 2.10101 17.331 1.62723 17.6431 1.35487C17.9552 1.08251 18.4289 1.1147 18.7013 1.42678L19.9931 2.90695C20.7259 3.74655 21.1401 4.81707 21.1633 5.93122L21.22 8.64888C21.2287 9.063 20.9 9.40572 20.4858 9.41435C20.0717 9.42299 19.729 9.09428 19.7204 8.68016L19.6637 5.9625C19.6478 5.20018 19.3644 4.46773 18.863 3.89326L17.5712 2.41309Z" fill="#070707"/>
</svg>
