<svg width="24" height="24" viewBox="0 0 24 24" fill="none" xmlns="http://www.w3.org/2000/svg">
<path fill-rule="evenodd" clip-rule="evenodd" d="M6.4288 2.41309C6.70116 2.10101 6.66896 1.62723 6.35689 1.35487C6.04481 1.08251 5.57103 1.1147 5.29867 1.42678L4.00686 2.90695C3.2741 3.74655 2.85987 4.81707 2.83663 5.93122L2.77995 8.64888C2.77131 9.063 3.10003 9.40572 3.51415 9.41435C3.92827 9.42299 4.27099 9.09428 4.27963 8.68016L4.3363 5.9625C4.3522 5.20018 4.63562 4.46773 5.13699 3.89326L6.4288 2.41309ZM6.23696 7.70075C6.37586 5.48001 8.21745 3.75 10.4426 3.75H11V3C11 2.44772 11.4477 2 12 2C12.5523 2 13 2.44772 13 3V3.75H13.5574C15.7825 3.75 17.6241 5.48001 17.763 7.70075L17.984 11.2342C18.0682 12.5814 18.5205 13.8796 19.2916 14.9875C19.9882 15.9886 19.368 17.3712 18.1571 17.5165L14.75 17.9253V19C14.75 20.5187 13.5188 21.75 12 21.75C10.4812 21.75 9.24994 20.5187 9.24994 19V17.9253L5.84281 17.5165C4.63188 17.3712 4.01166 15.9886 4.70835 14.9875C5.47941 13.8796 5.93169 12.5814 6.01596 11.2342L6.23696 7.70075ZM10.75 19C10.75 19.6903 11.3096 20.25 12 20.25C12.6903 20.25 13.25 19.6903 13.25 19V18.25H10.75V19ZM17.5712 2.41309C17.2988 2.10101 17.331 1.62723 17.6431 1.35487C17.9552 1.08251 18.4289 1.1147 18.7013 1.42678L19.9931 2.90695C20.7259 3.74655 21.1401 4.81707 21.1633 5.93122L21.22 8.64888C21.2287 9.063 20.8999 9.40572 20.4858 9.41436C20.0717 9.42299 19.729 9.09428 19.7203 8.68016L19.6637 5.9625C19.6478 5.20018 19.3643 4.46773 18.863 3.89326L17.5712 2.41309Z" fill="#070707"/>
</svg>
