<svg width="24" height="24" viewBox="0 0 24 24" fill="none" xmlns="http://www.w3.org/2000/svg">
<path fill-rule="evenodd" clip-rule="evenodd" d="M0.25 5C0.25 4.58579 0.585786 4.25 1 4.25H23C23.4142 4.25 23.75 4.58579 23.75 5V20C23.75 20.4142 23.4142 20.75 23 20.75H1C0.585786 20.75 0.25 20.4142 0.25 20V16C0.25 15.5858 0.585786 15.25 1 15.25C1.52764 15.25 2.06814 15.2345 2.48913 14.9819C2.82662 14.7794 3.25 14.3174 3.25 13C3.25 11.6826 2.82662 11.2206 2.48913 11.0181C2.06814 10.7655 1.52764 10.75 1 10.75C0.585786 10.75 0.25 10.4142 0.25 10V5ZM1.75 5.75V9.27533C2.21024 9.31781 2.75943 9.43102 3.26087 9.73188C4.17338 10.2794 4.75 11.3174 4.75 13C4.75 14.6826 4.17338 15.7206 3.26087 16.2681C2.75943 16.569 2.21024 16.6822 1.75 16.7247V19.25H22.25V5.75H1.75ZM11.5 8.75C11.0858 8.75 10.75 9.08579 10.75 9.5C10.75 9.91421 11.0858 10.25 11.5 10.25C11.9142 10.25 12.25 9.91421 12.25 9.5C12.25 9.08579 11.9142 8.75 11.5 8.75ZM9.25 9.5C9.25 8.25736 10.2574 7.25 11.5 7.25C12.7426 7.25 13.75 8.25736 13.75 9.5C13.75 10.7426 12.7426 11.75 11.5 11.75C10.2574 11.75 9.25 10.7426 9.25 9.5ZM5.75 9V7.5H7.25V9H5.75ZM19.0762 8.48014L11.5762 17.4801C11.311 17.7983 10.8381 17.8413 10.5199 17.5762C10.2017 17.311 10.1587 16.8381 10.4238 16.5199L14.1738 12.0199L17.9238 7.51986L19.0762 8.48014ZM5.75 12V10.5H7.25V12H5.75ZM17.5 14.75C17.0858 14.75 16.75 15.0858 16.75 15.5C16.75 15.9142 17.0858 16.25 17.5 16.25C17.9142 16.25 18.25 15.9142 18.25 15.5C18.25 15.0858 17.9142 14.75 17.5 14.75ZM15.25 15.5C15.25 14.2574 16.2574 13.25 17.5 13.25C18.7426 13.25 19.75 14.2574 19.75 15.5C19.75 16.7426 18.7426 17.75 17.5 17.75C16.2574 17.75 15.25 16.7426 15.25 15.5ZM5.75 15V13.5H7.25V15H5.75ZM5.75 18V16.5H7.25V18H5.75Z" fill="#070707"/>
</svg>
