<svg width="24" height="24" viewBox="0 0 24 24" fill="none" xmlns="http://www.w3.org/2000/svg">
<path fill-rule="evenodd" clip-rule="evenodd" d="M21.3588 6.35876C21.615 6.10248 21.6471 5.70687 21.4549 5.41575C21.4274 5.37416 21.3954 5.33471 21.3588 5.2981L18.5303 2.46967C18.3897 2.32902 18.1989 2.25 18 2.25C17.9153 2.25 17.8321 2.26432 17.7536 2.29163C17.6477 2.32846 17.5504 2.38891 17.4697 2.46967L8.24323 11.6912C8.16674 11.7786 8.11145 11.89 8.08198 12.0028L7.08198 15.8313C7.01469 16.0889 7.08903 16.3629 7.2773 16.5511C7.37432 16.6482 7.49409 16.7149 7.62266 16.7476C7.74359 16.7784 7.8723 16.7791 7.99717 16.7465L11.8256 15.7465C11.9545 15.7128 12.0721 15.6454 12.1664 15.5511L21.3588 6.35876ZM18 4.06066L19.7678 5.82843L11.2496 14.3466L8.85686 14.9716L9.48185 12.5788L18 4.06066ZM19.9022 10.1208C20.0017 12.4688 19.9147 14.8227 19.6413 17.1603C19.4871 18.478 18.4217 19.5276 17.0915 19.6763C13.7357 20.0513 10.2641 20.0513 6.90832 19.6763C5.57821 19.5276 4.51272 18.478 4.35861 17.1603C3.95761 13.7318 3.95761 10.2682 4.35861 6.83973C4.51272 5.52205 5.57821 4.47244 6.90832 4.32378C9.10049 4.07877 11.342 3.99381 13.5684 4.0689C13.6797 4.07266 13.7876 4.03039 13.8663 3.9517L14.8588 2.95914C14.9803 2.83762 14.9021 2.63001 14.7305 2.62021C12.0684 2.4682 9.37146 2.53915 6.74171 2.83306C4.72965 3.05794 3.10532 4.64295 2.86877 6.66548C2.45423 10.2097 2.45423 13.7903 2.86877 17.3346C3.10532 19.3571 4.72965 20.9421 6.74171 21.167C10.2082 21.5544 13.7916 21.5544 17.2582 21.167C19.2702 20.9421 20.8945 19.3571 21.1311 17.3346C21.4562 14.5545 21.5264 11.7522 21.3414 8.96259C21.3301 8.79199 21.1235 8.71524 21.0026 8.83614L20.0193 9.81947C19.9398 9.89903 19.8975 10.0084 19.9022 10.1208Z" fill="#070707"/>
</svg>
