<svg width="24" height="24" viewBox="0 0 24 24" fill="none" xmlns="http://www.w3.org/2000/svg">
<path fill-rule="evenodd" clip-rule="evenodd" d="M16.5973 3.34199C16.7163 3.22296 16.644 3.01949 16.4764 3.00356C13.2645 2.69817 9.96687 2.72416 6.76948 3.08151C4.87108 3.29369 3.33989 4.78947 3.11707 6.69452C2.70479 10.2195 2.70479 13.7805 3.11707 17.3055C3.33989 19.2106 4.87108 20.7064 6.76948 20.9185C10.2176 21.3039 13.7823 21.3039 17.2304 20.9185C19.1288 20.7064 20.66 19.2106 20.8828 17.3055C21.2741 13.9597 21.294 10.5813 20.9425 7.2322C20.925 7.06569 20.7226 6.99486 20.6042 7.11325L12.1663 15.5511C12.072 15.6454 11.9544 15.7128 11.8255 15.7465L7.99709 16.7465C7.73947 16.8138 7.46549 16.7394 7.27721 16.5511C7.08894 16.3629 7.0146 16.0889 7.08189 15.8313L8.08189 12.0028C8.11557 11.8739 8.18299 11.7563 8.27721 11.6621L16.5973 3.34199ZM18.1767 4.23739C18.0791 4.13995 17.9211 4.13995 17.8235 4.23739L9.52991 12.531C9.49851 12.5624 9.47603 12.6016 9.4648 12.6446L8.96481 14.5588C8.91688 14.7434 9.08503 14.912 9.26967 14.8639L11.1841 14.3638C11.2268 14.3525 11.2664 14.33 11.2977 14.2987L19.5911 6.0053C19.6887 5.90767 19.6887 5.74938 19.5911 5.65175L18.1767 4.23739Z" fill="#070707"/>
</svg>
