<svg width="24" height="24" viewBox="0 0 24 24" fill="none" xmlns="http://www.w3.org/2000/svg">
<path fill-rule="evenodd" clip-rule="evenodd" d="M9.93913 2.51227C11.4986 2.33478 13.0731 2.33478 14.6325 2.51227L16.2277 2.69385C16.4563 2.71986 16.6602 2.84927 16.7811 3.04493C16.9019 3.2406 16.9263 3.4809 16.8473 3.69686L14.6448 9.71343H17.0001C17.2461 9.71343 17.4765 9.8341 17.6166 10.0364C17.7567 10.2386 17.7887 10.4967 17.7022 10.7271L17.5118 11.2343C16.1905 14.7533 14.3226 18.0419 11.9768 20.9789L11.5861 21.4681C11.3873 21.717 11.0528 21.8132 10.7521 21.7078C10.4514 21.6025 10.2501 21.3186 10.2501 21V13.8476H8.42862C8.0401 13.8476 7.7159 13.5509 7.68156 13.1639L7.55893 11.7821C7.35145 9.44416 7.35145 7.09245 7.55893 4.75452L7.68156 3.37274C7.71305 3.01788 7.98983 2.73414 8.3438 2.69385L9.93913 2.51227ZM14.4628 4.00265C13.0162 3.83799 11.5555 3.83799 10.1088 4.00265L9.12158 4.11501L9.05306 4.88711C8.85341 7.13682 8.85341 9.39979 9.05306 11.6495L9.11501 12.3476H11.0001C11.4143 12.3476 11.7501 12.6834 11.7501 13.0976V18.8023C13.4522 16.46 14.8512 13.9102 15.9128 11.2134H13.5715C13.3266 11.2134 13.0971 11.0938 12.9568 10.893C12.8165 10.6923 12.783 10.4356 12.8672 10.2056L15.111 4.07642L14.4628 4.00265Z" fill="#070707"/>
</svg>
