<svg width="24" height="24" viewBox="0 0 24 24" fill="none" xmlns="http://www.w3.org/2000/svg">
<path fill-rule="evenodd" clip-rule="evenodd" d="M12 2.5C8.13401 2.5 5 5.63401 5 9.5C5 10.8722 5.39483 12.1522 6.07708 13.2325L3.35048 17.9551C3.20342 18.2099 3.21882 18.527 3.38988 18.7663C3.56093 19.0056 3.85606 19.1228 4.14467 19.066L6.75854 18.5522L7.62047 21.0728C7.71564 21.3511 7.96471 21.5481 8.25745 21.5766C8.5502 21.6051 8.83258 21.4599 8.97965 21.2051L11.6998 16.4937C11.7993 16.4979 11.8994 16.5 12 16.5C12.1006 16.5 12.2007 16.4979 12.3002 16.4937L15.0204 21.2051C15.1676 21.4601 15.4504 21.6054 15.7434 21.5765C16.0364 21.5477 16.2854 21.35 16.3801 21.0713L17.2376 18.5455L19.8537 19.0657C20.1425 19.1231 20.4382 19.0063 20.6097 18.767C20.7812 18.5276 20.7967 18.2101 20.6495 17.9551L17.9229 13.2325C18.6052 12.1522 19 10.8722 19 9.5C19 5.63401 15.866 2.5 12 2.5ZM10.1127 16.2426C8.95488 15.9192 7.91817 15.3056 7.08592 14.4852L5.4747 17.2759L7.11167 16.9541C7.47972 16.8817 7.84463 17.0924 7.96599 17.4473L8.50579 19.0259L10.1127 16.2426ZM15.4918 19.0217L13.8873 16.2426C15.0451 15.9192 16.0818 15.3056 16.9141 14.4852L18.5229 17.2717L16.8851 16.9461C16.516 16.8727 16.1497 17.0842 16.0287 17.4406L15.4918 19.0217ZM8.75 9.5C8.75 7.70507 10.2051 6.25 12 6.25C13.7949 6.25 15.25 7.70507 15.25 9.5C15.25 11.2949 13.7949 12.75 12 12.75C10.2051 12.75 8.75 11.2949 8.75 9.5ZM12 7.75C11.0335 7.75 10.25 8.5335 10.25 9.5C10.25 10.4665 11.0335 11.25 12 11.25C12.9665 11.25 13.75 10.4665 13.75 9.5C13.75 8.5335 12.9665 7.75 12 7.75Z" fill="#070707"/>
</svg>
