<svg width="24" height="24" viewBox="0 0 24 24" fill="none" xmlns="http://www.w3.org/2000/svg">
<path fill-rule="evenodd" clip-rule="evenodd" d="M4.75 9.5C4.75 5.49594 7.99594 2.25 12 2.25C16.0041 2.25 19.25 5.49594 19.25 9.5C19.25 10.9681 18.8136 12.3343 18.0635 13.476L20.6495 17.9551C20.7967 18.2101 20.7812 18.5276 20.6097 18.767C20.4382 19.0063 20.1425 19.1232 19.8537 19.0657L17.2376 18.5455L16.3801 21.0713C16.2854 21.3501 16.0364 21.5477 15.7434 21.5765C15.4504 21.6054 15.1676 21.4601 15.0204 21.2051L12.4406 16.7368C12.2948 16.7456 12.1479 16.75 12 16.75C11.8521 16.75 11.7052 16.7456 11.5594 16.7368L8.97965 21.2051C8.83258 21.4599 8.5502 21.6051 8.25745 21.5766C7.96471 21.5481 7.71564 21.3511 7.62047 21.0728L6.75854 18.5522L4.14467 19.066C3.85606 19.1228 3.56093 19.0056 3.38988 18.7663C3.21882 18.527 3.20342 18.2099 3.35048 17.9551L5.93652 13.476C5.18639 12.3343 4.75 10.9681 4.75 9.5ZM12 3.75C8.82437 3.75 6.25 6.32436 6.25 9.5C6.25 12.6756 8.82437 15.25 12 15.25C15.1756 15.25 17.75 12.6756 17.75 9.5C17.75 6.32436 15.1756 3.75 12 3.75ZM6.95691 14.7086C7.79597 15.5212 8.83078 16.1328 9.98376 16.466L8.50579 19.0259L7.96599 17.4473C7.84463 17.0924 7.47972 16.8817 7.11167 16.9541L5.4747 17.2759L6.95691 14.7086ZM14.0163 16.466L15.4918 19.0217L16.0287 17.4406C16.1497 17.0842 16.516 16.8727 16.8851 16.9461L18.5229 17.2717L17.0431 14.7086C16.204 15.5212 15.1692 16.1328 14.0163 16.466ZM8.75 9.5C8.75 7.70507 10.2051 6.25 12 6.25C13.7949 6.25 15.25 7.70507 15.25 9.5C15.25 11.2949 13.7949 12.75 12 12.75C10.2051 12.75 8.75 11.2949 8.75 9.5ZM12 7.75C11.0335 7.75 10.25 8.5335 10.25 9.5C10.25 10.4665 11.0335 11.25 12 11.25C12.9665 11.25 13.75 10.4665 13.75 9.5C13.75 8.5335 12.9665 7.75 12 7.75Z" fill="#070707"/>
</svg>
