<svg width="24" height="24" viewBox="0 0 24 24" fill="none" xmlns="http://www.w3.org/2000/svg">
<path d="M15.5 12C15.5 11.1716 16.1716 10.5 17 10.5C17.8284 10.5 18.5 11.1716 18.5 12C18.5 12.8284 17.8284 13.5 17 13.5C16.1716 13.5 15.5 12.8284 15.5 12Z" fill="#070707"/>
<path fill-rule="evenodd" clip-rule="evenodd" d="M20.4414 6.6739C19.7837 5.12824 18.3303 4.01711 16.6008 3.83511L15.9489 3.76652C12.6566 3.42006 9.33581 3.44291 6.04857 3.83463L5.61663 3.8861C3.94783 4.08496 2.62558 5.38877 2.4033 7.05461C1.96534 10.3369 1.96534 13.6629 2.4033 16.9452C2.62558 18.611 3.94783 19.9148 5.61663 20.1137L6.04857 20.1652C9.33581 20.5569 12.6566 20.5797 15.9489 20.2333L16.6008 20.1647C18.3303 19.9827 19.7837 18.8716 20.4414 17.3259C21.4807 17.0165 22.2739 16.1155 22.4041 15.0023C22.6374 13.0075 22.6374 10.9923 22.4041 8.99752C22.2739 7.8843 21.4807 6.98332 20.4414 6.6739ZM15.7919 5.25828C12.6108 4.92353 9.40224 4.94561 6.22606 5.32409L5.79412 5.37556C4.8053 5.49339 4.02183 6.26594 3.89013 7.253C3.46973 10.4037 3.46973 13.5962 3.89013 16.7468C4.02183 17.7339 4.80531 18.5064 5.79412 18.6242L6.22606 18.6757C9.40224 19.0542 12.6108 19.0763 15.7919 18.7415L16.4438 18.6729C17.2943 18.5834 18.0469 18.1642 18.5684 17.5419C17.0603 17.6298 15.5321 17.5905 14.0418 17.424C12.7725 17.2821 11.7459 16.2825 11.5962 15.0023C11.3629 13.0075 11.3629 10.9923 11.5962 8.99752C11.7459 7.71726 12.7725 6.71772 14.0418 6.57585C15.5321 6.4093 17.0603 6.37 18.5684 6.45794C18.0469 5.83562 17.2943 5.41638 16.4438 5.32688L15.7919 5.25828ZM19.2775 8.01459C19.2781 8.01843 19.2787 8.02227 19.2793 8.02611L19.2853 8.06499L19.484 8.03414C19.5868 8.04432 19.6894 8.05512 19.7918 8.06657C20.3792 8.13222 20.8469 8.59636 20.9142 9.17177C21.134 11.0508 21.134 12.949 20.9142 14.828C20.8469 15.4034 20.3792 15.8676 19.7918 15.9332C19.6894 15.9447 19.5867 15.9555 19.484 15.9657L19.2853 15.9348L19.2793 15.9737C19.2787 15.9775 19.2781 15.9814 19.2775 15.9852C17.5988 16.1371 15.8773 16.1198 14.2085 15.9332C13.6211 15.8676 13.1533 15.4034 13.086 14.828C12.8662 12.949 12.8662 11.0508 13.086 9.17177C13.1533 8.59636 13.6211 8.13222 14.2085 8.06657C15.8773 7.88005 17.5988 7.86273 19.2775 8.01459Z" fill="#070707"/>
</svg>
