<svg width="24" height="24" viewBox="0 0 24 24" fill="none" xmlns="http://www.w3.org/2000/svg">
<path fill-rule="evenodd" clip-rule="evenodd" d="M12.8484 2.50348C11.9814 3.37876 11.7323 4.7111 11.7031 5.61552C11.6962 5.83028 11.8745 6.0025 12.0881 5.97868C13.3928 5.83317 14.2835 4.96836 14.8372 4.3162C15.4246 3.62438 15.6523 2.33299 15.6931 1.46719C15.7047 1.22174 15.4787 1.0441 15.2431 1.11398C14.6329 1.29501 13.6532 1.69099 12.8484 2.50348ZM13.9375 22.1697L13.937 22.1695C13.324 21.9347 12.7177 21.7025 12.1809 21.7025C11.6251 21.7025 11.022 21.9362 10.4141 22.1717L10.4135 22.1719L10.4133 22.172C9.79595 22.4112 9.17382 22.6522 8.59166 22.6522C5.89531 22.7343 2.69995 16.2857 2.69995 13.1904C2.69996 7.3516 6.30375 5.83912 8.12768 5.83912C9.11236 5.83912 9.99015 6.22138 10.7382 6.54717L10.7383 6.5472C11.2938 6.7891 11.7778 6.99986 12.1809 6.99986C12.6066 6.99986 13.1196 6.78777 13.7072 6.54484L13.7074 6.54476L13.7076 6.54471C14.4735 6.22803 15.3661 5.85902 16.3568 5.83912C17.7185 5.81176 19.2111 6.92622 19.953 7.73642C20.1168 7.91535 20.0538 8.19513 19.8703 8.3538C19.0548 9.05883 17.9774 10.7632 18.0376 12.909C18.0892 14.7503 19.5726 16.016 20.481 16.5243C20.6128 16.5981 20.703 16.7329 20.6963 16.8838C20.5677 19.8226 16.9966 22.6522 15.7702 22.6522C15.1971 22.6522 14.5639 22.4097 13.9375 22.1697Z" fill="#070707"/>
</svg>
