<svg width="24" height="24" viewBox="0 0 24 24" fill="none" xmlns="http://www.w3.org/2000/svg">
<g id=".base">
<path id="Vector" fill-rule="evenodd" clip-rule="evenodd" d="M5.88813 2C4.83806 2 3.98682 2.84019 3.98682 3.87662C3.98682 4.91305 4.83806 5.75325 5.88813 5.75325C6.9382 5.75325 7.78945 4.91305 7.78945 3.87662C7.78945 2.84019 6.9382 2 5.88813 2ZM4.09866 7.29858C4.03689 7.29858 3.98682 7.348 3.98682 7.40897V18.8895C3.98682 18.9504 4.03689 18.9999 4.09866 18.9999H7.67761C7.73938 18.9999 7.78945 18.9504 7.78945 18.8895V7.40897C7.78945 7.348 7.73938 7.29858 7.67761 7.29858H4.09866ZM9.80273 7.40897C9.80273 7.348 9.8528 7.29858 9.91458 7.29858H13.4935C13.5553 7.29858 13.6054 7.348 13.6054 7.40897V8.62932L14.7743 8.13484C15.3895 7.87465 16.0482 7.71117 16.7144 7.65139C18.8748 7.45754 20.7633 9.13414 20.7633 11.2772V18.8895C20.7633 18.9504 20.7132 18.9999 20.6514 18.9999H17.0725C17.0107 18.9999 16.9606 18.9504 16.9606 18.8895V12.7077C16.9606 12.2685 16.7839 11.8473 16.4692 11.5368C16.1546 11.2262 15.728 11.0518 15.283 11.0518C14.838 11.0518 14.4113 11.2262 14.0968 11.5368C13.7821 11.8473 13.6054 12.2685 13.6054 12.7077V18.8895C13.6054 18.9504 13.5553 18.9999 13.4935 18.9999H9.91458C9.8528 18.9999 9.80273 18.9504 9.80273 18.8895V7.40897Z" fill="white"/>
</g>
</svg>
