<svg width="24" height="24" viewBox="0 0 24 24" fill="none" xmlns="http://www.w3.org/2000/svg">
<path d="M19.5179 3H5.23214C4.00134 3 3 4.00134 3 5.23214V19.5179C3 20.7487 4.00134 21.75 5.23214 21.75H19.5179C20.7487 21.75 21.75 20.7487 21.75 19.5179V5.23214C21.75 4.00134 20.7487 3 19.5179 3ZM17.7348 11.1799C17.6335 11.1893 17.5308 11.1955 17.4268 11.1955C16.2558 11.1955 15.2268 10.5933 14.6281 9.68304C14.6281 12.071 14.6281 14.7879 14.6281 14.8335C14.6281 16.9357 12.9237 18.6402 10.8214 18.6402C8.7192 18.6402 7.01473 16.9357 7.01473 14.8335C7.01473 12.7312 8.7192 11.0268 10.8214 11.0268C10.9009 11.0268 10.9786 11.0339 11.0567 11.0388V12.9147C10.9786 12.9054 10.9018 12.8911 10.8214 12.8911C9.74821 12.8911 8.87857 13.7607 8.87857 14.8339C8.87857 15.9071 9.74821 16.7768 10.8214 16.7768C11.8946 16.7768 12.8424 15.9312 12.8424 14.858C12.8424 14.8156 12.8612 6.11071 12.8612 6.11071H14.654C14.8228 7.71384 16.117 8.97902 17.7348 9.09509V11.1799Z" fill="#070707"/>
</svg>
