<svg width="24" height="24" viewBox="0 0 24 24" fill="none" xmlns="http://www.w3.org/2000/svg">
<g id=".base">
<path id="Vector" d="M21.4865 6.22724C21.5445 6.14647 21.4589 6.04218 21.3662 6.07811C20.7075 6.33344 20.019 6.50571 19.3168 6.5906C20.0987 6.12348 20.7021 5.4124 21.0367 4.57053C21.0707 4.48477 20.9771 4.40819 20.8963 4.4528C20.1696 4.85414 19.3858 5.14313 18.5717 5.30957C18.5376 5.31654 18.5025 5.30494 18.4786 5.27969C17.8676 4.63502 17.0633 4.20578 16.1866 4.05745C15.2914 3.90601 14.3713 4.05596 13.5706 4.48379C12.7698 4.91162 12.1337 5.59313 11.762 6.42144C11.4086 7.209 11.3133 8.08691 11.4876 8.93003C11.5011 8.99545 11.4499 9.05721 11.3832 9.05307C9.79919 8.95469 8.25145 8.53336 6.83544 7.81446C5.42303 7.09739 4.1723 6.09983 3.15943 4.8833C3.11448 4.82931 3.02928 4.83629 2.99652 4.89845C2.68136 5.49651 2.51634 6.16311 2.51679 6.8406C2.51551 7.51498 2.681 8.17922 2.99854 8.77416C3.31608 9.36911 3.77581 9.87631 4.33679 10.2506C3.74186 10.2344 3.15854 10.0873 2.62804 9.82067C2.55967 9.78631 2.47766 9.83524 2.48122 9.91167C2.52259 10.8009 2.84904 11.6936 3.4141 12.3786C4.01542 13.1074 4.85004 13.6062 5.77679 13.7906C5.42004 13.8992 5.04966 13.9564 4.67679 13.9606C4.47385 13.9582 4.2713 13.9433 4.07032 13.9158C3.9958 13.9056 3.93496 13.9764 3.96104 14.0469C4.23746 14.7944 4.72578 15.4467 5.36786 15.9228C6.05431 16.4318 6.88236 16.7142 7.73679 16.7306C6.29399 17.8659 4.51267 18.4855 2.67679 18.4906C2.48814 18.4912 2.29958 18.4851 2.11147 18.4723C2.00546 18.4651 1.95671 18.6063 2.04808 18.6605C3.83685 19.7221 5.88138 20.2831 7.96679 20.2806C9.50648 20.2966 11.0339 20.0056 12.4599 19.4247C13.8859 18.8437 15.1818 17.9845 16.272 16.8971C17.3622 15.8097 18.2248 14.516 18.8094 13.0915C19.3939 11.667 19.6888 10.1403 19.6768 8.6006V8.12077C19.6768 8.0892 19.6917 8.05951 19.7169 8.04048C20.3952 7.52834 20.9917 6.91691 21.4865 6.22724Z" fill="#00DE69"/>
</g>
</svg>
